<?xml version="1.0" encoding="utf-8"?>
<!-- Generator: Adobe Illustrator 25.4.1, SVG Export Plug-In . SVG Version: 6.00 Build 0)  -->
<svg version="1.1" id="Capa_1" xmlns="http://www.w3.org/2000/svg" xmlns:xlink="http://www.w3.org/1999/xlink" x="0px" y="0px"
	 viewBox="0 0 517.5 126" style="enable-background:new 0 0 517.5 126;" xml:space="preserve">
<style type="text/css">
	.st0{fill:#8BC34A;}
</style>
<path id="Sustracción_1" class="st0" d="M496.5,126H21c-11.6,0-21-9.4-21-21V21C0,9.4,9.4,0,21,0h475.5c11.6,0,21,9.4,21,21v84
	C517.5,116.6,508.1,126,496.5,126z M141.8,99.7c-2.9,0-5.3,2.3-5.3,5.2s2.3,5.3,5.2,5.3c2.9,0,5.3-2.3,5.3-5.2c0,0,0,0,0,0
	C147,102.1,144.6,99.8,141.8,99.7z M39.4,73.5h18.4l-9.3,28.1c-0.5,1.4,0.3,2.9,1.7,3.3c0.3,0.1,0.5,0.1,0.8,0.1h10.2
	c2.8,0,5.4-1.5,6.8-3.9L84,73.5h15.4c5.3,0,10.3-2.1,14-5.8c2.6-2.6,2.6-6.8,0-9.4c0,0,0,0,0,0c-3.7-3.8-8.8-5.9-14-6.1H84
	L67.9,24.9c-1.4-2.5-3.9-4.1-6.8-4.2H50.9c-0.8,0-1.6,0.4-2,1.1c-0.6,0.8-0.7,1.7-0.5,2.6l9.3,27.8l-18.4,0.3l-6.3-8.4
	c-1-1.3-2.5-2.1-4.2-2.1h-4.5c-0.8,0-1.6,0.4-2.1,1c-0.5,0.6-0.7,1.5-0.5,2.2l4.1,16.5c0.2,0.8,0.2,1.7,0,2.6l-4.1,16.5
	c-0.2,0.8,0,1.6,0.5,2.2c0.5,0.6,1.3,1,2.1,1h4.5c1.7,0,3.2-0.8,4.2-2.1L39.4,73.5L39.4,73.5z M420.8,40.8c-4.3-0.1-8.5,0.9-12.2,3
	c-3.5,2-6.2,5.1-8,8.7c-2,4.2-2.9,8.8-2.8,13.5c-0.1,4.6,0.8,9.1,2.8,13.3c1.7,3.6,4.5,6.7,7.9,8.8c3.7,2.2,8,3.2,12.3,3.1
	c3.4,0.1,6.8-0.6,9.9-2.1c2.8-1.3,5.3-3.1,7.3-5.4l-6.5-6.9c-1.4,1.5-3,2.7-4.9,3.6c-1.8,0.8-3.8,1.2-5.8,1.1
	c-3.6,0.2-7.1-1.5-9.3-4.4c-1.5-2.1-2.5-4.5-3-7h32.7c0.2-1.2,0.3-2.4,0.3-3.6c0-1.2,0-2.2,0-3c0-5.2-0.9-9.5-2.8-12.9
	c-1.7-3.2-4.3-5.8-7.6-7.5C428.1,41.6,424.5,40.7,420.8,40.8z M301.5,59.2c-3.1,0-6.2,0.6-9.2,1.7c-2.8,1-5.3,2.8-7.2,5.2
	c-2,2.6-3,5.8-2.8,9.1c-0.1,3.1,0.7,6.2,2.4,8.9c1.6,2.4,3.8,4.2,6.4,5.3c2.9,1.2,6,1.8,9.1,1.8c4.9,0.2,9.8-1.5,13.4-4.9v3.8H324
	V58.9c0.1-3.3-0.5-6.5-1.7-9.5c-1-2.2-2.6-4.1-4.6-5.5c-1.9-1.2-4-2.1-6.2-2.5c-2.2-0.4-4.4-0.6-6.6-0.6c-3.7,0-7.4,0.5-10.9,1.7
	c-3,0.9-5.9,2.2-8.6,3.9l3.3,8.9c2.3-1.5,4.7-2.7,7.3-3.6c2.6-0.9,5.2-1.3,7.9-1.3c1.7,0,3.5,0.2,5.1,0.8c1.4,0.5,2.5,1.5,3.3,2.7
	c0.8,1.6,1.2,3.3,1.1,5.1v2.8c-1.7-0.9-3.5-1.5-5.4-1.9C305.9,59.4,303.7,59.2,301.5,59.2z M458.3,80.5v9.5h38.9v-9.5h-14V22h-27
	l5,9.5h11.2v49H458.3z M337.7,41.9L337.7,41.9l18.8,48.1H367l18.8-48.1h-11.5l-11,30.5c-0.3,0.7-0.5,1.5-0.8,2.3
	c-0.3,0.9-0.5,1.9-0.6,2.9c-0.2-1.1-0.4-2-0.7-2.9c-0.2-0.8-0.5-1.6-0.8-2.3l-11.1-30.5C349.3,41.9,337.7,41.9,337.7,41.9z
	 M221.5,80.5v9.5H256v-9.5h-13.5V65c-0.1-2.6,0.5-5.2,1.6-7.6c1.2-2.2,3-3.9,5.3-4.9c3-1.3,6.3-1.8,9.6-1.7v10.4h10.6V43.3
	c-1.5-0.8-3-1.3-4.6-1.8c-2.1-0.5-4.2-0.8-6.4-0.8c-2.7,0-5.4,0.4-8,1.3c-2.2,0.8-4.3,2.1-6,3.7c-1.1,1.1-2.1,2.4-2.8,3.8v-7.7
	h-20.3v9.5h10.2v29.1H221.5z M162.9,24.1v10.7H182v55.2h11.2V34.8h19.2V24.1H162.9z M141.8,78.8c-2.9,0-5.3,2.3-5.3,5.2
	s2.3,5.3,5.2,5.3c2.9,0,5.3-2.3,5.3-5.2c0,0,0,0,0,0C147,81.1,144.6,78.8,141.8,78.8z M141.8,57.8c-2.9,0-5.2,2.4-5.2,5.2
	s2.4,5.2,5.2,5.2c2.9,0,5.2-2.3,5.2-5.2C147,60.1,144.6,57.8,141.8,57.8z M141.8,36.8c-2.9,0-5.2,2.4-5.2,5.2s2.4,5.2,5.2,5.2
	c2.9,0,5.2-2.3,5.2-5.2C147,39.1,144.6,36.8,141.8,36.8z M141.8,15.8c-2.9,0-5.2,2.4-5.2,5.2s2.4,5.2,5.2,5.2c2.9,0,5.2-2.3,5.2-5.2
	C147,18.1,144.6,15.8,141.8,15.8L141.8,15.8z M302,81.7c-2.4,0.1-4.8-0.5-6.9-1.8c-1.5-1.1-2.5-2.8-2.5-4.7
	c-0.1-2.2,1.2-4.2,3.2-5.1c2.3-1.1,4.8-1.6,7.3-1.6c1.9,0,3.8,0.2,5.6,0.6c1.6,0.3,3.2,0.9,4.6,1.6v6.2c-1.4,1.4-2.9,2.5-4.6,3.3
	C306.7,81.2,304.4,81.7,302,81.7z M431.1,60.9h-22.4c0.4-2.3,1.2-4.5,2.6-6.5c2-2.7,5.2-4.1,9.6-4.1c1.6,0,3.2,0.4,4.7,1.1
	c1.5,0.8,2.8,2,3.7,3.5C430.4,56.7,431,58.8,431.1,60.9L431.1,60.9z"/>
</svg>
